# MagicaVoxel @ Ephtracy

# group
o 

# material
mtllib 1.mtl
usemtl palette

# normals
vn -1 0 0
vn 1 0 0
vn 0 0 1
vn 0 0 -1
vn 0 -1 0
vn 0 1 0

# texcoords
vt 0.0488281 0.5
vt 0.0644531 0.5
vt 0.220703 0.5
vt 0.970703 0.5
vt 0.974609 0.5

# verts
v -1 0 0.6
v -1 0 -0.7
v -1 0.1 0.6
v -1 0.1 -0.7
v -1 0.9 0.3
v -1 0.9 0.1
v -1 1.3 0.3
v -1 1.3 0.1
v -0.9 0.1 0.5
v -0.9 0.1 -0.6
v -0.9 0.2 0.5
v -0.9 0.2 -0.6
v -0.8 0.2 0.4
v -0.8 0.2 0.3
v -0.8 0.2 -0.4
v -0.8 0.2 -0.5
v -0.8 0.3 0.4
v -0.8 0.3 0.3
v -0.8 0.3 0.2
v -0.8 0.3 -0.3
v -0.8 0.3 -0.4
v -0.8 0.3 -0.5
v -0.8 0.4 0.3
v -0.8 0.4 0.2
v -0.8 0.4 0.1
v -0.8 0.4 -0.2
v -0.8 0.4 -0.3
v -0.8 0.4 -0.4
v -0.8 0.5 -0.1
v -0.8 0.5 -0.2
v -0.8 0.5 -0.3
v -0.8 0.6 3.72529e-008
v -0.8 0.6 -0.1
v -0.8 0.6 -0.2
v -0.8 0.7 0.1
v -0.8 0.7 3.72529e-008
v -0.8 0.7 -0.1
v -0.8 0.8 0.1
v -0.8 0.8 3.72529e-008
v -0.8 0.9 0.2
v -0.8 0.9 0.1
v 0.5 0.2 0.4
v 0.5 0.2 0.3
v 0.5 0.2 -0.4
v 0.5 0.2 -0.5
v 0.5 0.3 0.4
v 0.5 0.3 0.3
v 0.5 0.3 0.2
v 0.5 0.3 -0.3
v 0.5 0.3 -0.4
v 0.5 0.3 -0.5
v 0.5 0.4 0.3
v 0.5 0.4 0.2
v 0.5 0.4 0.1
v 0.5 0.4 -0.2
v 0.5 0.4 -0.3
v 0.5 0.4 -0.4
v 0.5 0.5 -0.1
v 0.5 0.5 -0.2
v 0.5 0.5 -0.3
v 0.5 0.6 3.72529e-008
v 0.5 0.6 -0.1
v 0.5 0.6 -0.2
v 0.5 0.7 0.1
v 0.5 0.7 3.72529e-008
v 0.5 0.7 -0.1
v 0.5 0.8 0.1
v 0.5 0.8 3.72529e-008
v 0.5 0.9 0.2
v 0.5 0.9 0.1
v 0.9 0 0.5
v 0.9 0 -0.6
v 0.9 0.1 0.5
v 0.9 0.1 -0.6
v 0.9 1 0.2
v 0.9 1 0.1
v 0.9 1.2 0.2
v 0.9 1.2 0.1
v -0.9 0 0.5
v -0.9 0 -0.6
v -0.9 0.1 0.5
v -0.9 0.1 -0.6
v -0.8 1 0.2
v -0.8 1 0.1
v -0.8 1.2 0.2
v -0.8 1.2 0.1
v -0.5 0.2 0.4
v -0.5 0.2 0.3
v -0.5 0.2 -0.4
v -0.5 0.2 -0.5
v -0.5 0.3 0.4
v -0.5 0.3 0.3
v -0.5 0.3 0.2
v -0.5 0.3 -0.3
v -0.5 0.3 -0.4
v -0.5 0.3 -0.5
v -0.5 0.4 0.3
v -0.5 0.4 0.2
v -0.5 0.4 0.1
v -0.5 0.4 -0.2
v -0.5 0.4 -0.3
v -0.5 0.4 -0.4
v -0.5 0.5 -0.1
v -0.5 0.5 -0.2
v -0.5 0.5 -0.3
v -0.5 0.6 3.72529e-008
v -0.5 0.6 -0.1
v -0.5 0.6 -0.2
v -0.5 0.7 0.1
v -0.5 0.7 3.72529e-008
v -0.5 0.7 -0.1
v -0.5 0.8 0.1
v -0.5 0.8 3.72529e-008
v -0.5 0.9 0.2
v -0.5 0.9 0.1
v 0.8 0.2 0.4
v 0.8 0.2 0.3
v 0.8 0.2 -0.4
v 0.8 0.2 -0.5
v 0.8 0.3 0.4
v 0.8 0.3 0.3
v 0.8 0.3 0.2
v 0.8 0.3 -0.3
v 0.8 0.3 -0.4
v 0.8 0.3 -0.5
v 0.8 0.4 0.3
v 0.8 0.4 0.2
v 0.8 0.4 0.1
v 0.8 0.4 -0.2
v 0.8 0.4 -0.3
v 0.8 0.4 -0.4
v 0.8 0.5 -0.1
v 0.8 0.5 -0.2
v 0.8 0.5 -0.3
v 0.8 0.6 3.72529e-008
v 0.8 0.6 -0.1
v 0.8 0.6 -0.2
v 0.8 0.7 0.1
v 0.8 0.7 3.72529e-008
v 0.8 0.7 -0.1
v 0.8 0.8 0.1
v 0.8 0.8 3.72529e-008
v 0.8 0.9 0.2
v 0.8 0.9 0.1
v 0.9 0.1 0.5
v 0.9 0.1 -0.6
v 0.9 0.2 0.5
v 0.9 0.2 -0.6
v 1 0 0.6
v 1 0 -0.7
v 1 0.1 0.6
v 1 0.1 -0.7
v 1 0.9 0.3
v 1 0.9 0.1
v 1 1.3 0.3
v 1 1.3 0.1
v -1 0 0.6
v -1 0.1 0.6
v 1 0 0.6
v 1 0.1 0.6
v -0.9 0.1 0.5
v -0.9 0.2 0.5
v 0.9 0.1 0.5
v 0.9 0.2 0.5
v -0.8 0.2 0.4
v -0.8 0.3 0.4
v -0.5 0.2 0.4
v -0.5 0.3 0.4
v 0.5 0.2 0.4
v 0.5 0.3 0.4
v 0.8 0.2 0.4
v 0.8 0.3 0.4
v -1 0.9 0.3
v -1 1.3 0.3
v -0.8 0.3 0.3
v -0.8 0.4 0.3
v -0.8 0.9 0.3
v -0.8 1.3 0.3
v -0.5 0.3 0.3
v -0.5 0.4 0.3
v -0.4 0.9 0.3
v -0.4 1.3 0.3
v -0.2 0.9 0.3
v -0.2 1.3 0.3
v 0.2 0.9 0.3
v 0.2 1.3 0.3
v 0.4 0.9 0.3
v 0.4 1.3 0.3
v 0.5 0.3 0.3
v 0.5 0.4 0.3
v 0.8 0.3 0.3
v 0.8 0.4 0.3
v 0.8 0.9 0.3
v 0.8 1.3 0.3
v 1 0.9 0.3
v 1 1.3 0.3
v -0.8 0.4 0.2
v -0.8 0.9 0.2
v -0.5 0.4 0.2
v -0.5 0.9 0.2
v 0.5 0.4 0.2
v 0.5 0.9 0.2
v 0.8 0.4 0.2
v 0.8 0.9 0.2
v -0.8 0.6 3.72529e-008
v -0.8 0.7 3.72529e-008
v -0.5 0.6 3.72529e-008
v -0.5 0.7 3.72529e-008
v 0.5 0.6 3.72529e-008
v 0.5 0.7 3.72529e-008
v 0.8 0.6 3.72529e-008
v 0.8 0.7 3.72529e-008
v -0.8 0.5 -0.1
v -0.8 0.6 -0.1
v -0.5 0.5 -0.1
v -0.5 0.6 -0.1
v 0.5 0.5 -0.1
v 0.5 0.6 -0.1
v 0.8 0.5 -0.1
v 0.8 0.6 -0.1
v -0.8 0.4 -0.2
v -0.8 0.5 -0.2
v -0.5 0.4 -0.2
v -0.5 0.5 -0.2
v 0.5 0.4 -0.2
v 0.5 0.5 -0.2
v 0.8 0.4 -0.2
v 0.8 0.5 -0.2
v -0.8 0.3 -0.3
v -0.8 0.4 -0.3
v -0.5 0.3 -0.3
v -0.5 0.4 -0.3
v 0.5 0.3 -0.3
v 0.5 0.4 -0.3
v 0.8 0.3 -0.3
v 0.8 0.4 -0.3
v -0.8 0.2 -0.4
v -0.8 0.3 -0.4
v -0.5 0.2 -0.4
v -0.5 0.3 -0.4
v 0.5 0.2 -0.4
v 0.5 0.3 -0.4
v 0.8 0.2 -0.4
v 0.8 0.3 -0.4
v -0.9 0 -0.6
v -0.9 0.1 -0.6
v 0.9 0 -0.6
v 0.9 0.1 -0.6
v -0.9 0 0.5
v -0.9 0.1 0.5
v 0.9 0 0.5
v 0.9 0.1 0.5
v -0.8 0.2 0.3
v -0.8 0.3 0.3
v -0.5 0.2 0.3
v -0.5 0.3 0.3
v 0.5 0.2 0.3
v 0.5 0.3 0.3
v 0.8 0.2 0.3
v 0.8 0.3 0.3
v -0.8 0.3 0.2
v -0.8 0.4 0.2
v -0.8 1 0.2
v -0.8 1.2 0.2
v -0.5 0.3 0.2
v -0.5 0.4 0.2
v -0.4 1 0.2
v -0.4 1.2 0.2
v -0.2 1 0.2
v -0.2 1.2 0.2
v 0.2 1 0.2
v 0.2 1.2 0.2
v 0.4 1 0.2
v 0.4 1.2 0.2
v 0.5 0.3 0.2
v 0.5 0.4 0.2
v 0.8 0.3 0.2
v 0.8 0.4 0.2
v 0.8 1 0.2
v 0.8 1.2 0.2
v 0.9 1 0.2
v 0.9 1.2 0.2
v -1 0.9 0.1
v -1 1.3 0.1
v -0.8 0.4 0.1
v -0.8 0.7 0.1
v -0.8 0.8 0.1
v -0.8 0.9 0.1
v -0.8 1 0.1
v -0.8 1.2 0.1
v -0.8 1.3 0.1
v -0.5 0.4 0.1
v -0.5 0.7 0.1
v -0.5 0.8 0.1
v -0.5 0.9 0.1
v -0.4 0.9 0.1
v -0.4 1 0.1
v -0.4 1.2 0.1
v -0.4 1.3 0.1
v -0.2 0.9 0.1
v -0.2 1 0.1
v -0.2 1.2 0.1
v -0.2 1.3 0.1
v 0.2 0.9 0.1
v 0.2 1 0.1
v 0.2 1.2 0.1
v 0.2 1.3 0.1
v 0.4 0.9 0.1
v 0.4 1 0.1
v 0.4 1.2 0.1
v 0.4 1.3 0.1
v 0.5 0.4 0.1
v 0.5 0.7 0.1
v 0.5 0.8 0.1
v 0.5 0.9 0.1
v 0.8 0.4 0.1
v 0.8 0.7 0.1
v 0.8 0.8 0.1
v 0.8 0.9 0.1
v 0.8 1 0.1
v 0.8 1.2 0.1
v 0.8 1.3 0.1
v 0.9 1 0.1
v 0.9 1.2 0.1
v 1 0.9 0.1
v 1 1.3 0.1
v -0.8 0.7 3.72529e-008
v -0.8 0.8 3.72529e-008
v -0.5 0.7 3.72529e-008
v -0.5 0.8 3.72529e-008
v 0.5 0.7 3.72529e-008
v 0.5 0.8 3.72529e-008
v 0.8 0.7 3.72529e-008
v 0.8 0.8 3.72529e-008
v -0.8 0.6 -0.1
v -0.8 0.7 -0.1
v -0.5 0.6 -0.1
v -0.5 0.7 -0.1
v 0.5 0.6 -0.1
v 0.5 0.7 -0.1
v 0.8 0.6 -0.1
v 0.8 0.7 -0.1
v -0.8 0.5 -0.2
v -0.8 0.6 -0.2
v -0.5 0.5 -0.2
v -0.5 0.6 -0.2
v 0.5 0.5 -0.2
v 0.5 0.6 -0.2
v 0.8 0.5 -0.2
v 0.8 0.6 -0.2
v -0.8 0.4 -0.3
v -0.8 0.5 -0.3
v -0.5 0.4 -0.3
v -0.5 0.5 -0.3
v 0.5 0.4 -0.3
v 0.5 0.5 -0.3
v 0.8 0.4 -0.3
v 0.8 0.5 -0.3
v -0.8 0.3 -0.4
v -0.8 0.4 -0.4
v -0.5 0.3 -0.4
v -0.5 0.4 -0.4
v 0.5 0.3 -0.4
v 0.5 0.4 -0.4
v 0.8 0.3 -0.4
v 0.8 0.4 -0.4
v -0.8 0.2 -0.5
v -0.8 0.3 -0.5
v -0.5 0.2 -0.5
v -0.5 0.3 -0.5
v 0.5 0.2 -0.5
v 0.5 0.3 -0.5
v 0.8 0.2 -0.5
v 0.8 0.3 -0.5
v -0.9 0.1 -0.6
v -0.9 0.2 -0.6
v 0.9 0.1 -0.6
v 0.9 0.2 -0.6
v -1 0 -0.7
v -1 0.1 -0.7
v 1 0 -0.7
v 1 0.1 -0.7
v -1 0 0.6
v 1 0 0.6
v -0.9 0 0.5
v 0.9 0 0.5
v -0.9 0 -0.6
v 0.9 0 -0.6
v -1 0 -0.7
v 1 0 -0.7
v -0.9 0.1 0.5
v 0.9 0.1 0.5
v -0.9 0.1 -0.6
v 0.9 0.1 -0.6
v -0.8 0.3 0.3
v -0.5 0.3 0.3
v 0.5 0.3 0.3
v 0.8 0.3 0.3
v -0.8 0.3 0.2
v -0.5 0.3 0.2
v 0.5 0.3 0.2
v 0.8 0.3 0.2
v -0.8 0.3 -0.3
v -0.5 0.3 -0.3
v 0.5 0.3 -0.3
v 0.8 0.3 -0.3
v -0.8 0.3 -0.4
v -0.5 0.3 -0.4
v 0.5 0.3 -0.4
v 0.8 0.3 -0.4
v -0.8 0.4 0.2
v -0.5 0.4 0.2
v 0.5 0.4 0.2
v 0.8 0.4 0.2
v -0.8 0.4 0.1
v -0.5 0.4 0.1
v 0.5 0.4 0.1
v 0.8 0.4 0.1
v -0.8 0.4 -0.2
v -0.5 0.4 -0.2
v 0.5 0.4 -0.2
v 0.8 0.4 -0.2
v -0.8 0.4 -0.3
v -0.5 0.4 -0.3
v 0.5 0.4 -0.3
v 0.8 0.4 -0.3
v -0.8 0.5 -0.1
v -0.5 0.5 -0.1
v 0.5 0.5 -0.1
v 0.8 0.5 -0.1
v -0.8 0.5 -0.2
v -0.5 0.5 -0.2
v 0.5 0.5 -0.2
v 0.8 0.5 -0.2
v -0.8 0.6 3.72529e-008
v -0.5 0.6 3.72529e-008
v 0.5 0.6 3.72529e-008
v 0.8 0.6 3.72529e-008
v -0.8 0.6 -0.1
v -0.5 0.6 -0.1
v 0.5 0.6 -0.1
v 0.8 0.6 -0.1
v -0.8 0.7 0.1
v -0.5 0.7 0.1
v 0.5 0.7 0.1
v 0.8 0.7 0.1
v -0.8 0.7 3.72529e-008
v -0.5 0.7 3.72529e-008
v 0.5 0.7 3.72529e-008
v 0.8 0.7 3.72529e-008
v -1 0.9 0.3
v -0.8 0.9 0.3
v -0.4 0.9 0.3
v -0.2 0.9 0.3
v 0.2 0.9 0.3
v 0.4 0.9 0.3
v 0.8 0.9 0.3
v 1 0.9 0.3
v -0.8 0.9 0.2
v -0.5 0.9 0.2
v 0.5 0.9 0.2
v 0.8 0.9 0.2
v -1 0.9 0.1
v -0.8 0.9 0.1
v -0.5 0.9 0.1
v -0.4 0.9 0.1
v -0.2 0.9 0.1
v 0.2 0.9 0.1
v 0.4 0.9 0.1
v 0.5 0.9 0.1
v 0.8 0.9 0.1
v 1 0.9 0.1
v -0.8 1.2 0.2
v -0.4 1.2 0.2
v -0.2 1.2 0.2
v 0.2 1.2 0.2
v 0.4 1.2 0.2
v 0.8 1.2 0.2
v 0.9 1.2 0.2
v -0.8 1.2 0.1
v -0.4 1.2 0.1
v -0.2 1.2 0.1
v 0.2 1.2 0.1
v 0.4 1.2 0.1
v 0.8 1.2 0.1
v 0.9 1.2 0.1
v -1 0.1 0.6
v 1 0.1 0.6
v -0.9 0.1 0.5
v 0.9 0.1 0.5
v -0.9 0.1 -0.6
v 0.9 0.1 -0.6
v -1 0.1 -0.7
v 1 0.1 -0.7
v -0.9 0.2 0.5
v 0.9 0.2 0.5
v -0.8 0.2 0.4
v -0.5 0.2 0.4
v 0.5 0.2 0.4
v 0.8 0.2 0.4
v -0.8 0.2 0.3
v -0.5 0.2 0.3
v 0.5 0.2 0.3
v 0.8 0.2 0.3
v -0.8 0.2 -0.4
v -0.5 0.2 -0.4
v 0.5 0.2 -0.4
v 0.8 0.2 -0.4
v -0.8 0.2 -0.5
v -0.5 0.2 -0.5
v 0.5 0.2 -0.5
v 0.8 0.2 -0.5
v -0.9 0.2 -0.6
v 0.9 0.2 -0.6
v -0.8 0.3 0.4
v -0.5 0.3 0.4
v 0.5 0.3 0.4
v 0.8 0.3 0.4
v -0.8 0.3 0.3
v -0.5 0.3 0.3
v 0.5 0.3 0.3
v 0.8 0.3 0.3
v -0.8 0.3 -0.4
v -0.5 0.3 -0.4
v 0.5 0.3 -0.4
v 0.8 0.3 -0.4
v -0.8 0.3 -0.5
v -0.5 0.3 -0.5
v 0.5 0.3 -0.5
v 0.8 0.3 -0.5
v -0.8 0.4 0.3
v -0.5 0.4 0.3
v 0.5 0.4 0.3
v 0.8 0.4 0.3
v -0.8 0.4 0.2
v -0.5 0.4 0.2
v 0.5 0.4 0.2
v 0.8 0.4 0.2
v -0.8 0.4 -0.3
v -0.5 0.4 -0.3
v 0.5 0.4 -0.3
v 0.8 0.4 -0.3
v -0.8 0.4 -0.4
v -0.5 0.4 -0.4
v 0.5 0.4 -0.4
v 0.8 0.4 -0.4
v -0.8 0.5 -0.2
v -0.5 0.5 -0.2
v 0.5 0.5 -0.2
v 0.8 0.5 -0.2
v -0.8 0.5 -0.3
v -0.5 0.5 -0.3
v 0.5 0.5 -0.3
v 0.8 0.5 -0.3
v -0.8 0.6 -0.1
v -0.5 0.6 -0.1
v 0.5 0.6 -0.1
v 0.8 0.6 -0.1
v -0.8 0.6 -0.2
v -0.5 0.6 -0.2
v 0.5 0.6 -0.2
v 0.8 0.6 -0.2
v -0.8 0.7 3.72529e-008
v -0.5 0.7 3.72529e-008
v 0.5 0.7 3.72529e-008
v 0.8 0.7 3.72529e-008
v -0.8 0.7 -0.1
v -0.5 0.7 -0.1
v 0.5 0.7 -0.1
v 0.8 0.7 -0.1
v -0.8 0.8 0.1
v -0.5 0.8 0.1
v 0.5 0.8 0.1
v 0.8 0.8 0.1
v -0.8 0.8 3.72529e-008
v -0.5 0.8 3.72529e-008
v 0.5 0.8 3.72529e-008
v 0.8 0.8 3.72529e-008
v -0.8 1 0.2
v -0.4 1 0.2
v -0.2 1 0.2
v 0.2 1 0.2
v 0.4 1 0.2
v 0.8 1 0.2
v 0.9 1 0.2
v -0.8 1 0.1
v -0.4 1 0.1
v -0.2 1 0.1
v 0.2 1 0.1
v 0.4 1 0.1
v 0.8 1 0.1
v 0.9 1 0.1
v -1 1.3 0.3
v -0.8 1.3 0.3
v -0.4 1.3 0.3
v -0.2 1.3 0.3
v 0.2 1.3 0.3
v 0.4 1.3 0.3
v 0.8 1.3 0.3
v 1 1.3 0.3
v -1 1.3 0.1
v -0.8 1.3 0.1
v -0.4 1.3 0.1
v -0.2 1.3 0.1
v 0.2 1.3 0.1
v 0.4 1.3 0.1
v 0.8 1.3 0.1
v 1 1.3 0.1

# faces
f 3/5/1 2/5/1 1/5/1
f 4/5/1 2/5/1 3/5/1
f 7/2/1 6/2/1 5/2/1
f 8/2/1 6/2/1 7/2/1
f 11/4/1 10/4/1 9/4/1
f 12/4/1 10/4/1 11/4/1
f 17/3/1 14/3/1 13/3/1
f 18/3/1 14/3/1 17/3/1
f 21/3/1 16/3/1 15/3/1
f 22/3/1 16/3/1 21/3/1
f 23/3/1 19/3/1 18/3/1
f 24/3/1 19/3/1 23/3/1
f 27/3/1 21/3/1 20/3/1
f 28/3/1 21/3/1 27/3/1
f 30/3/1 27/3/1 26/3/1
f 31/3/1 27/3/1 30/3/1
f 33/3/1 30/3/1 29/3/1
f 34/3/1 30/3/1 33/3/1
f 35/3/1 25/3/1 24/3/1
f 36/3/1 33/3/1 32/3/1
f 37/3/1 33/3/1 36/3/1
f 38/3/1 35/3/1 24/3/1
f 38/3/1 36/3/1 35/3/1
f 39/3/1 36/3/1 38/3/1
f 40/3/1 38/3/1 24/3/1
f 41/3/1 38/3/1 40/3/1
f 46/3/1 43/3/1 42/3/1
f 47/3/1 43/3/1 46/3/1
f 50/3/1 45/3/1 44/3/1
f 51/3/1 45/3/1 50/3/1
f 52/3/1 48/3/1 47/3/1
f 53/3/1 48/3/1 52/3/1
f 56/3/1 50/3/1 49/3/1
f 57/3/1 50/3/1 56/3/1
f 59/3/1 56/3/1 55/3/1
f 60/3/1 56/3/1 59/3/1
f 62/3/1 59/3/1 58/3/1
f 63/3/1 59/3/1 62/3/1
f 64/3/1 54/3/1 53/3/1
f 65/3/1 62/3/1 61/3/1
f 66/3/1 62/3/1 65/3/1
f 67/3/1 64/3/1 53/3/1
f 67/3/1 65/3/1 64/3/1
f 68/3/1 65/3/1 67/3/1
f 69/3/1 67/3/1 53/3/1
f 70/3/1 67/3/1 69/3/1
f 73/5/1 72/5/1 71/5/1
f 74/5/1 72/5/1 73/5/1
f 77/2/1 76/2/1 75/2/1
f 78/2/1 76/2/1 77/2/1
f 79/5/2 80/5/2 81/5/2
f 81/5/2 80/5/2 82/5/2
f 83/2/2 84/2/2 85/2/2
f 85/2/2 84/2/2 86/2/2
f 87/3/2 88/3/2 91/3/2
f 91/3/2 88/3/2 92/3/2
f 89/3/2 90/3/2 95/3/2
f 95/3/2 90/3/2 96/3/2
f 92/3/2 93/3/2 97/3/2
f 97/3/2 93/3/2 98/3/2
f 94/3/2 95/3/2 101/3/2
f 101/3/2 95/3/2 102/3/2
f 100/3/2 101/3/2 104/3/2
f 104/3/2 101/3/2 105/3/2
f 103/3/2 104/3/2 107/3/2
f 107/3/2 104/3/2 108/3/2
f 98/3/2 99/3/2 109/3/2
f 106/3/2 107/3/2 110/3/2
f 110/3/2 107/3/2 111/3/2
f 98/3/2 109/3/2 112/3/2
f 109/3/2 110/3/2 112/3/2
f 112/3/2 110/3/2 113/3/2
f 98/3/2 112/3/2 114/3/2
f 114/3/2 112/3/2 115/3/2
f 116/3/2 117/3/2 120/3/2
f 120/3/2 117/3/2 121/3/2
f 118/3/2 119/3/2 124/3/2
f 124/3/2 119/3/2 125/3/2
f 121/3/2 122/3/2 126/3/2
f 126/3/2 122/3/2 127/3/2
f 123/3/2 124/3/2 130/3/2
f 130/3/2 124/3/2 131/3/2
f 129/3/2 130/3/2 133/3/2
f 133/3/2 130/3/2 134/3/2
f 132/3/2 133/3/2 136/3/2
f 136/3/2 133/3/2 137/3/2
f 127/3/2 128/3/2 138/3/2
f 135/3/2 136/3/2 139/3/2
f 139/3/2 136/3/2 140/3/2
f 127/3/2 138/3/2 141/3/2
f 138/3/2 139/3/2 141/3/2
f 141/3/2 139/3/2 142/3/2
f 127/3/2 141/3/2 143/3/2
f 143/3/2 141/3/2 144/3/2
f 145/4/2 146/4/2 147/4/2
f 147/4/2 146/4/2 148/4/2
f 149/5/2 150/5/2 151/5/2
f 151/5/2 150/5/2 152/5/2
f 153/2/2 154/2/2 155/2/2
f 155/2/2 154/2/2 156/2/2
f 159/5/3 158/5/3 157/5/3
f 160/5/3 158/5/3 159/5/3
f 163/4/3 162/4/3 161/4/3
f 164/4/3 162/4/3 163/4/3
f 167/3/3 166/3/3 165/3/3
f 168/3/3 166/3/3 167/3/3
f 171/3/3 170/3/3 169/3/3
f 172/3/3 170/3/3 171/3/3
f 177/2/3 174/2/3 173/2/3
f 178/2/3 174/2/3 177/2/3
f 179/3/3 176/3/3 175/3/3
f 180/3/3 176/3/3 179/3/3
f 181/1/3 178/1/3 177/1/3
f 182/1/3 178/1/3 181/1/3
f 183/2/3 182/2/3 181/2/3
f 184/2/3 182/2/3 183/2/3
f 185/1/3 184/1/3 183/1/3
f 186/1/3 184/1/3 185/1/3
f 187/2/3 186/2/3 185/2/3
f 188/2/3 186/2/3 187/2/3
f 191/3/3 190/3/3 189/3/3
f 192/3/3 190/3/3 191/3/3
f 193/1/3 188/1/3 187/1/3
f 194/1/3 188/1/3 193/1/3
f 195/2/3 194/2/3 193/2/3
f 196/2/3 194/2/3 195/2/3
f 199/3/3 198/3/3 197/3/3
f 200/3/3 198/3/3 199/3/3
f 203/3/3 202/3/3 201/3/3
f 204/3/3 202/3/3 203/3/3
f 207/3/3 206/3/3 205/3/3
f 208/3/3 206/3/3 207/3/3
f 211/3/3 210/3/3 209/3/3
f 212/3/3 210/3/3 211/3/3
f 215/3/3 214/3/3 213/3/3
f 216/3/3 214/3/3 215/3/3
f 219/3/3 218/3/3 217/3/3
f 220/3/3 218/3/3 219/3/3
f 223/3/3 222/3/3 221/3/3
f 224/3/3 222/3/3 223/3/3
f 227/3/3 226/3/3 225/3/3
f 228/3/3 226/3/3 227/3/3
f 231/3/3 230/3/3 229/3/3
f 232/3/3 230/3/3 231/3/3
f 235/3/3 234/3/3 233/3/3
f 236/3/3 234/3/3 235/3/3
f 239/3/3 238/3/3 237/3/3
f 240/3/3 238/3/3 239/3/3
f 243/3/3 242/3/3 241/3/3
f 244/3/3 242/3/3 243/3/3
f 247/5/3 246/5/3 245/5/3
f 248/5/3 246/5/3 247/5/3
f 249/5/4 250/5/4 251/5/4
f 251/5/4 250/5/4 252/5/4
f 253/3/4 254/3/4 255/3/4
f 255/3/4 254/3/4 256/3/4
f 257/3/4 258/3/4 259/3/4
f 259/3/4 258/3/4 260/3/4
f 261/3/4 262/3/4 265/3/4
f 265/3/4 262/3/4 266/3/4
f 263/1/4 264/1/4 267/1/4
f 267/1/4 264/1/4 268/1/4
f 267/2/4 268/2/4 269/2/4
f 269/2/4 268/2/4 270/2/4
f 269/1/4 270/1/4 271/1/4
f 271/1/4 270/1/4 272/1/4
f 271/2/4 272/2/4 273/2/4
f 273/2/4 272/2/4 274/2/4
f 275/3/4 276/3/4 277/3/4
f 277/3/4 276/3/4 278/3/4
f 273/1/4 274/1/4 279/1/4
f 279/1/4 274/1/4 280/1/4
f 279/2/4 280/2/4 281/2/4
f 281/2/4 280/2/4 282/2/4
f 283/2/4 284/2/4 288/2/4
f 288/2/4 284/2/4 289/2/4
f 289/2/4 284/2/4 290/2/4
f 290/2/4 284/2/4 291/2/4
f 285/3/4 286/3/4 292/3/4
f 292/3/4 286/3/4 293/3/4
f 287/3/4 288/3/4 294/3/4
f 288/1/4 289/1/4 295/1/4
f 294/3/4 288/3/4 295/3/4
f 295/1/4 289/1/4 296/1/4
f 296/1/4 289/1/4 297/1/4
f 290/1/4 291/1/4 298/1/4
f 298/1/4 291/1/4 299/1/4
f 296/2/4 297/2/4 300/2/4
f 300/2/4 297/2/4 301/2/4
f 298/2/4 299/2/4 302/2/4
f 302/2/4 299/2/4 303/2/4
f 300/1/4 301/1/4 304/1/4
f 304/1/4 301/1/4 305/1/4
f 302/1/4 303/1/4 306/1/4
f 306/1/4 303/1/4 307/1/4
f 304/2/4 305/2/4 308/2/4
f 308/2/4 305/2/4 309/2/4
f 306/2/4 307/2/4 310/2/4
f 310/2/4 307/2/4 311/2/4
f 308/1/4 309/1/4 315/1/4
f 312/3/4 313/3/4 316/3/4
f 316/3/4 313/3/4 317/3/4
f 314/3/4 315/3/4 318/3/4
f 315/1/4 309/1/4 319/1/4
f 318/3/4 315/3/4 319/3/4
f 319/1/4 309/1/4 320/1/4
f 310/1/4 311/1/4 321/1/4
f 321/1/4 311/1/4 322/1/4
f 319/2/4 320/2/4 323/2/4
f 321/2/4 322/2/4 324/2/4
f 319/2/4 323/2/4 325/2/4
f 323/2/4 324/2/4 325/2/4
f 324/2/4 322/2/4 326/2/4
f 325/2/4 324/2/4 326/2/4
f 327/3/4 328/3/4 329/3/4
f 329/3/4 328/3/4 330/3/4
f 331/3/4 332/3/4 333/3/4
f 333/3/4 332/3/4 334/3/4
f 335/3/4 336/3/4 337/3/4
f 337/3/4 336/3/4 338/3/4
f 339/3/4 340/3/4 341/3/4
f 341/3/4 340/3/4 342/3/4
f 343/3/4 344/3/4 345/3/4
f 345/3/4 344/3/4 346/3/4
f 347/3/4 348/3/4 349/3/4
f 349/3/4 348/3/4 350/3/4
f 351/3/4 352/3/4 353/3/4
f 353/3/4 352/3/4 354/3/4
f 355/3/4 356/3/4 357/3/4
f 357/3/4 356/3/4 358/3/4
f 359/3/4 360/3/4 361/3/4
f 361/3/4 360/3/4 362/3/4
f 363/3/4 364/3/4 365/3/4
f 365/3/4 364/3/4 366/3/4
f 367/3/4 368/3/4 369/3/4
f 369/3/4 368/3/4 370/3/4
f 371/3/4 372/3/4 373/3/4
f 373/3/4 372/3/4 374/3/4
f 375/4/4 376/4/4 377/4/4
f 377/4/4 376/4/4 378/4/4
f 379/5/4 380/5/4 381/5/4
f 381/5/4 380/5/4 382/5/4
f 385/5/5 384/5/5 383/5/5
f 386/5/5 384/5/5 385/5/5
f 387/5/5 385/5/5 383/5/5
f 388/5/5 384/5/5 386/5/5
f 389/5/5 387/5/5 383/5/5
f 389/5/5 388/5/5 387/5/5
f 390/5/5 384/5/5 388/5/5
f 390/5/5 388/5/5 389/5/5
f 393/4/5 392/4/5 391/4/5
f 394/4/5 392/4/5 393/4/5
f 399/3/5 396/3/5 395/3/5
f 400/3/5 396/3/5 399/3/5
f 401/3/5 398/3/5 397/3/5
f 402/3/5 398/3/5 401/3/5
f 407/3/5 404/3/5 403/3/5
f 408/3/5 404/3/5 407/3/5
f 409/3/5 406/3/5 405/3/5
f 410/3/5 406/3/5 409/3/5
f 415/3/5 412/3/5 411/3/5
f 416/3/5 412/3/5 415/3/5
f 417/3/5 414/3/5 413/3/5
f 418/3/5 414/3/5 417/3/5
f 423/3/5 420/3/5 419/3/5
f 424/3/5 420/3/5 423/3/5
f 425/3/5 422/3/5 421/3/5
f 426/3/5 422/3/5 425/3/5
f 431/3/5 428/3/5 427/3/5
f 432/3/5 428/3/5 431/3/5
f 433/3/5 430/3/5 429/3/5
f 434/3/5 430/3/5 433/3/5
f 439/3/5 436/3/5 435/3/5
f 440/3/5 436/3/5 439/3/5
f 441/3/5 438/3/5 437/3/5
f 442/3/5 438/3/5 441/3/5
f 447/3/5 444/3/5 443/3/5
f 448/3/5 444/3/5 447/3/5
f 449/3/5 446/3/5 445/3/5
f 450/3/5 446/3/5 449/3/5
f 459/2/5 452/2/5 451/2/5
f 459/1/5 453/1/5 452/1/5
f 460/1/5 453/1/5 459/1/5
f 461/1/5 457/1/5 456/1/5
f 462/2/5 458/2/5 457/2/5
f 462/1/5 457/1/5 461/1/5
f 463/2/5 459/2/5 451/2/5
f 464/2/5 459/2/5 463/2/5
f 465/1/5 453/1/5 460/1/5
f 466/2/5 454/2/5 453/2/5
f 466/1/5 453/1/5 465/1/5
f 467/1/5 455/1/5 454/1/5
f 467/2/5 454/2/5 466/2/5
f 468/2/5 456/2/5 455/2/5
f 468/1/5 455/1/5 467/1/5
f 469/1/5 461/1/5 456/1/5
f 469/2/5 456/2/5 468/2/5
f 470/1/5 461/1/5 469/1/5
f 471/2/5 458/2/5 462/2/5
f 472/2/5 458/2/5 471/2/5
f 480/1/5 474/1/5 473/1/5
f 481/2/5 475/2/5 474/2/5
f 481/1/5 474/1/5 480/1/5
f 482/1/5 476/1/5 475/1/5
f 482/2/5 475/2/5 481/2/5
f 483/2/5 477/2/5 476/2/5
f 483/1/5 476/1/5 482/1/5
f 484/1/5 478/1/5 477/1/5
f 484/2/5 477/2/5 483/2/5
f 485/2/5 479/2/5 478/2/5
f 485/1/5 478/1/5 484/1/5
f 486/2/5 479/2/5 485/2/5
f 487/5/6 488/5/6 489/5/6
f 489/5/6 488/5/6 490/5/6
f 487/5/6 489/5/6 491/5/6
f 490/5/6 488/5/6 492/5/6
f 487/5/6 491/5/6 493/5/6
f 491/5/6 492/5/6 493/5/6
f 492/5/6 488/5/6 494/5/6
f 493/5/6 492/5/6 494/5/6
f 495/4/6 496/4/6 497/4/6
f 497/4/6 496/4/6 498/4/6
f 498/4/6 496/4/6 499/4/6
f 499/4/6 496/4/6 500/4/6
f 495/4/6 497/4/6 501/4/6
f 498/4/6 499/4/6 502/4/6
f 502/4/6 499/4/6 503/4/6
f 500/4/6 496/4/6 504/4/6
f 502/4/6 503/4/6 505/4/6
f 503/4/6 504/4/6 505/4/6
f 495/4/6 501/4/6 505/4/6
f 501/4/6 502/4/6 505/4/6
f 505/4/6 504/4/6 506/4/6
f 506/4/6 504/4/6 507/4/6
f 504/4/6 496/4/6 508/4/6
f 507/4/6 504/4/6 508/4/6
f 495/4/6 505/4/6 509/4/6
f 506/4/6 507/4/6 510/4/6
f 510/4/6 507/4/6 511/4/6
f 508/4/6 496/4/6 512/4/6
f 495/4/6 509/4/6 513/4/6
f 511/4/6 512/4/6 513/4/6
f 510/4/6 511/4/6 513/4/6
f 509/4/6 510/4/6 513/4/6
f 512/4/6 496/4/6 514/4/6
f 513/4/6 512/4/6 514/4/6
f 515/3/6 516/3/6 519/3/6
f 519/3/6 516/3/6 520/3/6
f 517/3/6 518/3/6 521/3/6
f 521/3/6 518/3/6 522/3/6
f 523/3/6 524/3/6 527/3/6
f 527/3/6 524/3/6 528/3/6
f 525/3/6 526/3/6 529/3/6
f 529/3/6 526/3/6 530/3/6
f 531/3/6 532/3/6 535/3/6
f 535/3/6 532/3/6 536/3/6
f 533/3/6 534/3/6 537/3/6
f 537/3/6 534/3/6 538/3/6
f 539/3/6 540/3/6 543/3/6
f 543/3/6 540/3/6 544/3/6
f 541/3/6 542/3/6 545/3/6
f 545/3/6 542/3/6 546/3/6
f 547/3/6 548/3/6 551/3/6
f 551/3/6 548/3/6 552/3/6
f 549/3/6 550/3/6 553/3/6
f 553/3/6 550/3/6 554/3/6
f 555/3/6 556/3/6 559/3/6
f 559/3/6 556/3/6 560/3/6
f 557/3/6 558/3/6 561/3/6
f 561/3/6 558/3/6 562/3/6
f 563/3/6 564/3/6 567/3/6
f 567/3/6 564/3/6 568/3/6
f 565/3/6 566/3/6 569/3/6
f 569/3/6 566/3/6 570/3/6
f 571/3/6 572/3/6 575/3/6
f 575/3/6 572/3/6 576/3/6
f 573/3/6 574/3/6 577/3/6
f 577/3/6 574/3/6 578/3/6
f 579/1/6 580/1/6 586/1/6
f 580/2/6 581/2/6 587/2/6
f 586/1/6 580/1/6 587/1/6
f 581/1/6 582/1/6 588/1/6
f 587/2/6 581/2/6 588/2/6
f 582/2/6 583/2/6 589/2/6
f 588/1/6 582/1/6 589/1/6
f 583/1/6 584/1/6 590/1/6
f 589/2/6 583/2/6 590/2/6
f 584/2/6 585/2/6 591/2/6
f 590/1/6 584/1/6 591/1/6
f 591/2/6 585/2/6 592/2/6
f 593/2/6 594/2/6 601/2/6
f 594/1/6 595/1/6 602/1/6
f 601/2/6 594/2/6 602/2/6
f 595/2/6 596/2/6 603/2/6
f 602/1/6 595/1/6 603/1/6
f 596/1/6 597/1/6 604/1/6
f 603/2/6 596/2/6 604/2/6
f 597/2/6 598/2/6 605/2/6
f 604/1/6 597/1/6 605/1/6
f 598/1/6 599/1/6 606/1/6
f 605/2/6 598/2/6 606/2/6
f 599/2/6 600/2/6 607/2/6
f 606/1/6 599/1/6 607/1/6
f 607/2/6 600/2/6 608/2/6
