# MagicaVoxel @ Ephtracy

# group
o 

# material
mtllib Road.mtl
usemtl palette

# normals
vn -1 0 0
vn 1 0 0
vn 0 0 1
vn 0 0 -1
vn 0 -1 0
vn 0 1 0

# texcoords
vt 0.185547 0.5
vt 0.306641 0.5
vt 0.451172 0.5
vt 0.541016 0.5
vt 0.548828 0.5
vt 0.673828 0.5

# verts
v -6.3 0 6.3
v -6.3 0 -6.3
v -6.3 0.4 6.3
v -6.3 0.4 -6.3
v 3.9 0.2 6.3
v 3.9 0.2 -6.3
v 3.9 0.4 6.3
v 3.9 0.4 -6.3
v -3.8 0.2 6.3
v -3.8 0.2 -6.3
v -3.8 0.4 6.3
v -3.8 0.4 -6.3
v 6.3 0 6.3
v 6.3 0 -6.3
v 6.3 0.4 6.3
v 6.3 0.4 -6.3
v -6.3 0 6.3
v -6.3 0.4 6.3
v -6.1 0 6.3
v -6.1 0.4 6.3
v -4 0 6.3
v -4 0.4 6.3
v -3.8 0 6.3
v -3.8 0.1 6.3
v -3.8 0.2 6.3
v -3.8 0.4 6.3
v -3.7 0 6.3
v -3.7 0.1 6.3
v -3.7 0.2 6.3
v -3.5 0 6.3
v -3.5 0.1 6.3
v -3.5 0.2 6.3
v -1.2 0 6.3
v -1.2 0.1 6.3
v 1.5 0 6.3
v 1.5 0.1 6.3
v 3.6 0 6.3
v 3.6 0.1 6.3
v 3.6 0.2 6.3
v 3.8 0 6.3
v 3.8 0.1 6.3
v 3.8 0.2 6.3
v 3.9 0 6.3
v 3.9 0.1 6.3
v 3.9 0.2 6.3
v 3.9 0.4 6.3
v 4.1 0 6.3
v 4.1 0.4 6.3
v 6.1 0 6.3
v 6.1 0.4 6.3
v 6.3 0 6.3
v 6.3 0.4 6.3
v -6.3 0 -6.3
v -6.3 0.4 -6.3
v -6.1 0 -6.3
v -6.1 0.4 -6.3
v -4 0 -6.3
v -4 0.4 -6.3
v -3.8 0 -6.3
v -3.8 0.1 -6.3
v -3.8 0.2 -6.3
v -3.8 0.4 -6.3
v -3.7 0 -6.3
v -3.7 0.1 -6.3
v -3.7 0.2 -6.3
v -3.5 0 -6.3
v -3.5 0.1 -6.3
v -3.5 0.2 -6.3
v 3.6 0 -6.3
v 3.6 0.1 -6.3
v 3.6 0.2 -6.3
v 3.8 0 -6.3
v 3.8 0.1 -6.3
v 3.8 0.2 -6.3
v 3.9 0 -6.3
v 3.9 0.1 -6.3
v 3.9 0.2 -6.3
v 3.9 0.4 -6.3
v 4.1 0 -6.3
v 4.1 0.4 -6.3
v 6.1 0 -6.3
v 6.1 0.4 -6.3
v 6.3 0 -6.3
v 6.3 0.4 -6.3
v -6.3 0 6.3
v -6.1 0 6.3
v -4 0 6.3
v -3.8 0 6.3
v -3.7 0 6.3
v -3.5 0 6.3
v -1.2 0 6.3
v 1.5 0 6.3
v 3.6 0 6.3
v 3.8 0 6.3
v 3.9 0 6.3
v 4.1 0 6.3
v 6.1 0 6.3
v 6.3 0 6.3
v -6.2 0 6.2
v -6.1 0 6.2
v -4 0 6.2
v -3.8 0 6.2
v -1.2 0 6.2
v -1.1 0 6.2
v 1.2 0 6.2
v 1.3 0 6.2
v 1.5 0 6.2
v 3.9 0 6.2
v 4.1 0 6.2
v 6.1 0 6.2
v -6.2 0 -6.2
v -6.1 0 -6.2
v -4 0 -6.2
v -3.8 0 -6.2
v -1.2 0 -6.2
v -1.1 0 -6.2
v 1.2 0 -6.2
v 1.3 0 -6.2
v 3.9 0 -6.2
v 4.1 0 -6.2
v 6.1 0 -6.2
v -6.3 0 -6.3
v -6.1 0 -6.3
v -4 0 -6.3
v -3.8 0 -6.3
v -3.7 0 -6.3
v -3.5 0 -6.3
v 3.6 0 -6.3
v 3.8 0 -6.3
v 3.9 0 -6.3
v 4.1 0 -6.3
v 6.1 0 -6.3
v 6.3 0 -6.3
v -3.8 0.2 6.3
v -3.7 0.2 6.3
v -3.5 0.2 6.3
v 3.6 0.2 6.3
v 3.8 0.2 6.3
v 3.9 0.2 6.3
v -1.2 0.2 6.2
v -1.1 0.2 6.2
v 1.2 0.2 6.2
v 1.3 0.2 6.2
v -1.2 0.2 4.1
v -1.1 0.2 4.1
v 1.2 0.2 4.1
v 1.3 0.2 4.1
v -1.2 0.2 3
v -1.1 0.2 3
v 1.2 0.2 3
v 1.3 0.2 3
v -1.2 0.2 1.1
v -1.1 0.2 1.1
v 1.2 0.2 1.1
v 1.3 0.2 1.1
v -1.2 0.2 0
v -1.1 0.2 0
v 1.2 0.2 0
v 1.3 0.2 0
v -1.2 0.2 -2.2
v -1.1 0.2 -2.2
v 1.2 0.2 -2.2
v 1.3 0.2 -2.2
v -1.2 0.2 -3.3
v -1.1 0.2 -3.3
v 1.2 0.2 -3.3
v 1.3 0.2 -3.3
v -1.2 0.2 -5.5
v -1.1 0.2 -5.5
v 1.2 0.2 -5.5
v 1.3 0.2 -5.5
v -3.8 0.2 -6.3
v -3.7 0.2 -6.3
v -3.5 0.2 -6.3
v 3.6 0.2 -6.3
v 3.8 0.2 -6.3
v 3.9 0.2 -6.3
v -6.3 0.4 6.3
v -6.1 0.4 6.3
v -4 0.4 6.3
v -3.8 0.4 6.3
v 3.9 0.4 6.3
v 4.1 0.4 6.3
v 6.1 0.4 6.3
v 6.3 0.4 6.3
v -6.3 0.4 -6.3
v -6.1 0.4 -6.3
v -4 0.4 -6.3
v -3.8 0.4 -6.3
v 3.9 0.4 -6.3
v 4.1 0.4 -6.3
v 6.1 0.4 -6.3
v 6.3 0.4 -6.3

# faces
f 3/4/1 2/4/1 1/4/1
f 4/4/1 2/4/1 3/4/1
f 7/4/1 6/4/1 5/4/1
f 8/4/1 6/4/1 7/4/1
f 9/4/2 10/4/2 11/4/2
f 11/4/2 10/4/2 12/4/2
f 13/4/2 14/4/2 15/4/2
f 15/4/2 14/4/2 16/4/2
f 19/4/3 18/4/3 17/4/3
f 20/4/3 18/4/3 19/4/3
f 21/1/3 20/1/3 19/1/3
f 22/1/3 20/1/3 21/1/3
f 23/4/3 22/4/3 21/4/3
f 24/4/3 22/4/3 23/4/3
f 25/4/3 22/4/3 24/4/3
f 26/4/3 22/4/3 25/4/3
f 27/2/3 24/2/3 23/2/3
f 28/6/3 25/6/3 24/6/3
f 28/2/3 24/2/3 27/2/3
f 29/6/3 25/6/3 28/6/3
f 30/5/3 28/5/3 27/5/3
f 30/5/3 29/5/3 28/5/3
f 31/5/3 29/5/3 30/5/3
f 32/5/3 29/5/3 31/5/3
f 33/2/3 31/2/3 30/2/3
f 34/6/3 32/6/3 31/6/3
f 34/2/3 31/2/3 33/2/3
f 35/6/3 34/6/3 33/6/3
f 36/6/3 32/6/3 34/6/3
f 36/6/3 34/6/3 35/6/3
f 37/2/3 36/2/3 35/2/3
f 38/6/3 32/6/3 36/6/3
f 38/2/3 36/2/3 37/2/3
f 39/6/3 32/6/3 38/6/3
f 40/5/3 38/5/3 37/5/3
f 40/5/3 39/5/3 38/5/3
f 41/5/3 39/5/3 40/5/3
f 42/5/3 39/5/3 41/5/3
f 43/2/3 41/2/3 40/2/3
f 44/6/3 42/6/3 41/6/3
f 44/2/3 41/2/3 43/2/3
f 45/6/3 42/6/3 44/6/3
f 47/4/3 45/4/3 44/4/3
f 47/4/3 46/4/3 45/4/3
f 47/4/3 44/4/3 43/4/3
f 48/4/3 46/4/3 47/4/3
f 49/1/3 48/1/3 47/1/3
f 50/1/3 48/1/3 49/1/3
f 51/4/3 50/4/3 49/4/3
f 52/4/3 50/4/3 51/4/3
f 53/4/4 54/4/4 55/4/4
f 55/4/4 54/4/4 56/4/4
f 55/1/4 56/1/4 57/1/4
f 57/1/4 56/1/4 58/1/4
f 57/4/4 58/4/4 59/4/4
f 59/4/4 58/4/4 60/4/4
f 60/4/4 58/4/4 61/4/4
f 61/4/4 58/4/4 62/4/4
f 59/2/4 60/2/4 63/2/4
f 60/6/4 61/6/4 64/6/4
f 63/2/4 60/2/4 64/2/4
f 64/6/4 61/6/4 65/6/4
f 63/5/4 64/5/4 66/5/4
f 64/5/4 65/5/4 66/5/4
f 66/5/4 65/5/4 67/5/4
f 67/5/4 65/5/4 68/5/4
f 66/2/4 67/2/4 69/2/4
f 67/6/4 68/6/4 70/6/4
f 69/2/4 67/2/4 70/2/4
f 70/6/4 68/6/4 71/6/4
f 69/5/4 70/5/4 72/5/4
f 70/5/4 71/5/4 72/5/4
f 72/5/4 71/5/4 73/5/4
f 73/5/4 71/5/4 74/5/4
f 72/2/4 73/2/4 75/2/4
f 73/6/4 74/6/4 76/6/4
f 75/2/4 73/2/4 76/2/4
f 76/6/4 74/6/4 77/6/4
f 76/4/4 77/4/4 79/4/4
f 77/4/4 78/4/4 79/4/4
f 75/4/4 76/4/4 79/4/4
f 79/4/4 78/4/4 80/4/4
f 79/1/4 80/1/4 81/1/4
f 81/1/4 80/1/4 82/1/4
f 81/4/4 82/4/4 83/4/4
f 83/4/4 82/4/4 84/4/4
f 99/4/5 86/4/5 85/4/5
f 100/1/5 87/1/5 86/1/5
f 100/4/5 86/4/5 99/4/5
f 101/4/5 88/4/5 87/4/5
f 101/1/5 87/1/5 100/1/5
f 102/2/5 89/2/5 88/2/5
f 102/4/5 88/4/5 101/4/5
f 103/2/5 91/2/5 90/2/5
f 103/6/5 92/6/5 91/6/5
f 104/6/5 92/6/5 103/6/5
f 105/6/5 92/6/5 104/6/5
f 106/6/5 92/6/5 105/6/5
f 107/2/5 93/2/5 92/2/5
f 107/6/5 92/6/5 106/6/5
f 108/2/5 95/2/5 94/2/5
f 108/4/5 96/4/5 95/4/5
f 109/1/5 97/1/5 96/1/5
f 109/4/5 96/4/5 108/4/5
f 110/4/5 98/4/5 97/4/5
f 110/1/5 97/1/5 109/1/5
f 111/4/5 99/4/5 85/4/5
f 111/2/5 100/2/5 99/2/5
f 111/2/5 101/2/5 100/2/5
f 111/2/5 102/2/5 101/2/5
f 112/2/5 102/2/5 111/2/5
f 113/2/5 102/2/5 112/2/5
f 114/2/5 89/2/5 102/2/5
f 114/2/5 102/2/5 113/2/5
f 115/3/5 104/3/5 103/3/5
f 115/2/5 103/2/5 90/2/5
f 116/2/5 105/2/5 104/2/5
f 116/3/5 104/3/5 115/3/5
f 117/3/5 106/3/5 105/3/5
f 117/2/5 105/2/5 116/2/5
f 118/2/5 107/2/5 106/2/5
f 118/3/5 106/3/5 117/3/5
f 119/2/5 109/2/5 108/2/5
f 119/2/5 110/2/5 109/2/5
f 119/2/5 108/2/5 94/2/5
f 120/2/5 110/2/5 119/2/5
f 121/4/5 98/4/5 110/4/5
f 121/2/5 110/2/5 120/2/5
f 122/4/5 112/4/5 111/4/5
f 122/4/5 111/4/5 85/4/5
f 123/1/5 113/1/5 112/1/5
f 123/4/5 112/4/5 122/4/5
f 124/4/5 114/4/5 113/4/5
f 124/1/5 113/1/5 123/1/5
f 125/2/5 89/2/5 114/2/5
f 125/4/5 114/4/5 124/4/5
f 126/5/5 90/5/5 89/5/5
f 126/2/5 89/2/5 125/2/5
f 127/2/5 118/2/5 117/2/5
f 127/5/5 90/5/5 126/5/5
f 127/2/5 115/2/5 90/2/5
f 127/2/5 116/2/5 115/2/5
f 127/2/5 117/2/5 116/2/5
f 128/2/5 107/2/5 118/2/5
f 128/2/5 118/2/5 127/2/5
f 128/5/5 94/5/5 93/5/5
f 128/2/5 93/2/5 107/2/5
f 129/2/5 119/2/5 94/2/5
f 129/5/5 94/5/5 128/5/5
f 130/4/5 120/4/5 119/4/5
f 130/2/5 119/2/5 129/2/5
f 131/1/5 121/1/5 120/1/5
f 131/4/5 120/4/5 130/4/5
f 132/4/5 98/4/5 121/4/5
f 132/1/5 121/1/5 131/1/5
f 133/4/5 98/4/5 132/4/5
f 136/6/6 137/6/6 140/6/6
f 140/6/6 137/6/6 141/6/6
f 141/6/6 137/6/6 142/6/6
f 142/6/6 137/6/6 143/6/6
f 136/6/6 140/6/6 144/6/6
f 140/3/6 141/3/6 144/3/6
f 141/6/6 142/6/6 145/6/6
f 144/3/6 141/3/6 145/3/6
f 142/3/6 143/3/6 146/3/6
f 145/6/6 142/6/6 146/6/6
f 143/6/6 137/6/6 147/6/6
f 146/3/6 143/3/6 147/3/6
f 145/6/6 146/6/6 148/6/6
f 144/6/6 145/6/6 148/6/6
f 146/6/6 147/6/6 148/6/6
f 136/6/6 144/6/6 148/6/6
f 148/6/6 147/6/6 149/6/6
f 149/6/6 147/6/6 150/6/6
f 147/6/6 137/6/6 151/6/6
f 150/6/6 147/6/6 151/6/6
f 136/6/6 148/6/6 152/6/6
f 148/3/6 149/3/6 152/3/6
f 149/6/6 150/6/6 153/6/6
f 152/3/6 149/3/6 153/3/6
f 150/3/6 151/3/6 154/3/6
f 153/6/6 150/6/6 154/6/6
f 151/6/6 137/6/6 155/6/6
f 154/3/6 151/3/6 155/3/6
f 136/6/6 152/6/6 156/6/6
f 153/6/6 154/6/6 156/6/6
f 154/6/6 155/6/6 156/6/6
f 152/6/6 153/6/6 156/6/6
f 156/6/6 155/6/6 157/6/6
f 157/6/6 155/6/6 158/6/6
f 155/6/6 137/6/6 159/6/6
f 158/6/6 155/6/6 159/6/6
f 136/6/6 156/6/6 160/6/6
f 156/3/6 157/3/6 160/3/6
f 157/6/6 158/6/6 161/6/6
f 160/3/6 157/3/6 161/3/6
f 158/3/6 159/3/6 162/3/6
f 161/6/6 158/6/6 162/6/6
f 159/6/6 137/6/6 163/6/6
f 162/3/6 159/3/6 163/3/6
f 136/6/6 160/6/6 164/6/6
f 161/6/6 162/6/6 164/6/6
f 162/6/6 163/6/6 164/6/6
f 160/6/6 161/6/6 164/6/6
f 164/6/6 163/6/6 165/6/6
f 165/6/6 163/6/6 166/6/6
f 163/6/6 137/6/6 167/6/6
f 166/6/6 163/6/6 167/6/6
f 136/6/6 164/6/6 168/6/6
f 164/3/6 165/3/6 168/3/6
f 165/6/6 166/6/6 169/6/6
f 168/3/6 165/3/6 169/3/6
f 166/3/6 167/3/6 170/3/6
f 169/6/6 166/6/6 170/6/6
f 167/6/6 137/6/6 171/6/6
f 170/3/6 167/3/6 171/3/6
f 134/6/6 135/6/6 172/6/6
f 135/5/6 136/5/6 173/5/6
f 172/6/6 135/6/6 173/6/6
f 136/6/6 168/6/6 174/6/6
f 173/5/6 136/5/6 174/5/6
f 169/6/6 170/6/6 174/6/6
f 170/6/6 171/6/6 174/6/6
f 168/6/6 169/6/6 174/6/6
f 171/6/6 137/6/6 175/6/6
f 174/6/6 171/6/6 175/6/6
f 137/5/6 138/5/6 175/5/6
f 138/6/6 139/6/6 176/6/6
f 175/5/6 138/5/6 176/5/6
f 176/6/6 139/6/6 177/6/6
f 178/4/6 179/4/6 186/4/6
f 179/1/6 180/1/6 187/1/6
f 186/4/6 179/4/6 187/4/6
f 180/4/6 181/4/6 188/4/6
f 187/1/6 180/1/6 188/1/6
f 188/4/6 181/4/6 189/4/6
f 182/4/6 183/4/6 190/4/6
f 183/1/6 184/1/6 191/1/6
f 190/4/6 183/4/6 191/4/6
f 184/4/6 185/4/6 192/4/6
f 191/1/6 184/1/6 192/1/6
f 192/4/6 185/4/6 193/4/6
